#!OML:ASF F:\VICON\USERDATA\INSTALL\rory7\rory7.ASF
:FULLY-SPECIFIED
:DEGREES
483
root -0.0499832 18.8385 4.14022 -3.17434 -5.71543 0.539233
lowerback 6.24439 1.41839 -1.3602
upperback 0.491669 1.76179 -0.986618
thorax -3.00288 0.887862 -0.407198
lowerneck -8.02185 -4.83294 -7.12189
upperneck 19.6165 -7.37098 8.82628
head 7.95207 -3.2665 3.41236
rclavicle 1.28092e-014 1.03368e-014
rhumerus -14.0218 35.6777 -75.0583
rradius 124.27
rwrist -29.8017
rhand -35.2805 -6.32566
rfingers 7.12502
rthumb -8.41545 -36.138
lclavicle 1.28092e-014 1.03368e-014
lhumerus -34.5404 15.5725 72.0449
lradius 21.5971
lwrist -9.42149
lhand -23.6899 22.1901
lfingers 7.12502
lthumb 2.77687 52.1518
rfemur 0 0 0
rtibia 0
rfoot 0 0
rtoes 0
lfemur 6.94325 -9.30897 -19.3357
ltibia 9.756
lfoot -13.2135 21.376
ltoes -3.83573
484
root -0.0494913 18.8384 4.1401 -3.18501 -5.74292 0.609247
lowerback 6.22015 1.41961 -1.42489
upperback 0.49379 1.75885 -1.00553
thorax -2.98848 0.887075 -0.389484
lowerneck -7.96464 -4.81627 -7.12204
upperneck 19.6025 -7.34464 8.80193
head 7.93372 -3.25793 3.40803
rclavicle 1.15947e-014 -1.07344e-014
rhumerus -13.9311 35.6137 -74.9712
rradius 124.218
rwrist -29.5771
rhand -35.4071 -5.87615
rfingers 7.12502
rthumb -8.53768 -35.6835
lclavicle 1.15947e-014 -1.07344e-014
lhumerus -34.5292 15.5926 72.0374
lradius 21.636
lwrist -9.51053
lhand -23.7651 22.287
lfingers 7.12502
lthumb 2.70421 52.2496
rfemur 0 0 0
rtibia 0
rfoot 0 0
rtoes 0
lfemur 7.00838 -9.28541 -19.4191
ltibia 9.68499
lfoot -13.2943 21.3697
ltoes -3.51706
485
root -0.0489054 18.8377 4.13772 -3.19729 -5.77717 0.623119
lowerback 6.23687 1.42781 -1.43348
upperback 0.47821 1.76824 -1.01519
thorax -3.01393 0.891897 -0.396193
lowerneck -7.8597 -4.79583 -7.11709
upperneck 19.5641 -7.31889 8.79817
head 7.89915 -3.24909 3.41047
rclavicle -1.74247e-015 1.82882e-014
rhumerus -13.895 35.5657 -74.9134
rradius 124.168
rwrist -29.3785
rhand -35.6582 -5.62009
rfingers 7.12502
rthumb -8.77994 -35.4175
lclavicle -1.74247e-015 1.82882e-014
lhumerus -34.5391 15.5901 71.9992
lradius 21.722
lwrist -9.83625
lhand -23.5152 23.0972
lfingers 7.12502
lthumb 2.94558 53.0566
rfemur 0 0 0
rtibia 0
rfoot 0 0
rtoes 0
lfemur 7.04146 -9.25946 -19.4373
ltibia 9.61251
lfoot -13.1925 21.4186
ltoes -3.71565
486
root -0.0479745 18.837 4.13819 -3.22477 -5.83845 0.616604
lowerback 6.2588 1.44346 -1.42143
upperback 0.476662 1.78937 -1.01565
thorax -3.02752 0.902276 -0.405926
lowerneck -7.77347 -4.8251 -6.96588
upperneck 19.467 -7.32412 8.52704
head 7.83628 -3.26777 3.29452
rclavicle -1.55301e-016 -3.18055e-015
rhumerus -13.8977 35.5655 -74.8784
rradius 124.152
rwrist -29.0679
rhand -35.8757 -5.5422
rfingers 7.12502
rthumb -8.98985 -35.3307
lclavicle -1.55301e-016 -3.18055e-015
lhumerus -34.532 15.4604 72.0587
lradius 21.8843
lwrist -9.76404
lhand -23.3229 23.3093
lfingers 7.12502
lthumb 3.13128 53.266
rfemur 0 0 0
rtibia 0
rfoot 0 0
rtoes 0
lfemur 7.09984 -9.20695 -19.4439
ltibia 9.55537
lfoot -13.1148 21.4658
ltoes -4.00052
487
root -0.0475957 18.8368 4.1384 -3.25144 -5.84505 0.649048
lowerback 6.25537 1.44635 -1.44502
upperback 0.498659 1.79151 -1.03025
thorax -3.00316 0.903427 -0.407443
lowerneck -7.5954 -4.91504 -6.68282
upperneck 19.204 -7.37973 8.02675
head 7.69314 -3.325 3.07653
rclavicle -2.14936e-015 1.98785e-015
rhumerus -13.8365 35.5328 -74.8316
rradius 124.142
rwrist -28.674
rhand -35.978 -5.86047
rfingers 7.12502
rthumb -9.08858 -35.6447
lclavicle -2.14936e-015 1.98785e-015
lhumerus -34.453 15.2892 72.1718
lradius 21.967
lwrist -9.38142
lhand -23.4786 22.4327
lfingers 7.12502
lthumb 2.98087 52.3916
rfemur 0 0 0
rtibia 0
rfoot 0 0
rtoes 0
lfemur 7.15874 -9.20726 -19.4873
ltibia 9.51509
lfoot -13.1452 21.4521
ltoes -3.57119
488
root -0.0483405 18.8376 4.13542 -3.25824 -5.83199 0.644384
lowerback 6.25703 1.44722 -1.43978
upperback 0.517625 1.79298 -1.03977
thorax -2.98406 0.903932 -0.419998
lowerneck -7.58423 -4.9132 -6.7302
upperneck 19.1799 -7.39158 8.13882
head 7.69007 -3.32498 3.12061
rclavicle -3.16813e-014 6.36111e-015
rhumerus -13.7303 35.4571 -74.7765
rradius 124.131
rwrist -28.3191
rhand -35.9333 -5.95698
rfingers 7.12502
rthumb -9.04545 -35.743
lclavicle -3.16813e-014 6.36111e-015
lhumerus -34.3368 15.1713 72.2433
lradius 21.9694
lwrist -9.10961
lhand -23.7249 21.4828
lfingers 7.12502
lthumb 2.74308 51.4449
rfemur 0 0 0
rtibia 0
rfoot 0 0
rtoes 0
lfemur 7.16201 -9.23107 -19.4757
ltibia 9.51166
lfoot -13.1749 21.4354
ltoes -3.15073
